<?xml version="1.0" encoding="UTF-8" standalone="no"?>
<!-- Created with matplotlib (http://matplotlib.org/) -->

<svg
   xmlns:dc="http://purl.org/dc/elements/1.1/"
   xmlns:cc="http://creativecommons.org/ns#"
   xmlns:rdf="http://www.w3.org/1999/02/22-rdf-syntax-ns#"
   xmlns:svg="http://www.w3.org/2000/svg"
   xmlns="http://www.w3.org/2000/svg"
   xmlns:xlink="http://www.w3.org/1999/xlink"
   xmlns:sodipodi="http://sodipodi.sourceforge.net/DTD/sodipodi-0.dtd"
   xmlns:inkscape="http://www.inkscape.org/namespaces/inkscape"
   height="345pt"
   version="1.1"
   viewBox="0 0 460 345"
   width="460pt"
   id="svg2"
   inkscape:version="0.91 r13725"
   sodipodi:docname="ngrams.svg">
  <metadata
     id="metadata683">
    <rdf:RDF>
      <cc:Work
         rdf:about="">
        <dc:format>image/svg+xml</dc:format>
        <dc:type
           rdf:resource="http://purl.org/dc/dcmitype/StillImage" />
      </cc:Work>
    </rdf:RDF>
  </metadata>
  <sodipodi:namedview
     pagecolor="#ffffff"
     bordercolor="#666666"
     borderopacity="1"
     objecttolerance="10"
     gridtolerance="10"
     guidetolerance="10"
     inkscape:pageopacity="0"
     inkscape:pageshadow="2"
     inkscape:window-width="1257"
     inkscape:window-height="729"
     id="namedview681"
     showgrid="false"
     inkscape:zoom="0.94820559"
     inkscape:cx="313.3047"
     inkscape:cy="212.77343"
     inkscape:window-x="0"
     inkscape:window-y="0"
     inkscape:window-maximized="0"
     inkscape:current-layer="svg2" />
  <defs
     id="defs4">
    <style
       type="text/css"
       id="style6">
*{stroke-linecap:butt;stroke-linejoin:round;}
  </style>
    <defs
       id="defs383">
      <path
         d="m 53.515625,70.515625 0,-9.625 q -5.609375,2.6875 -10.59375,4 -4.984375,1.328125 -9.625,1.328125 -8.046875,0 -12.421875,-3.125 -4.375,-3.125 -4.375,-8.890625 0,-4.84375 2.90625,-7.3125 2.90625,-2.453125 11.015625,-3.96875 L 36.375,41.703125 Q 47.40625,39.59375 52.65625,34.296875 57.90625,29 57.90625,20.125 q 0,-10.609375 -7.109375,-16.078125 -7.09375,-5.46875 -20.8125,-5.46875 -5.171875,0 -11.015625,1.171875 -5.828125,1.171875 -12.078125,3.46875 l 0,10.15625 q 6,-3.359375 11.765625,-5.078125 5.765625,-1.703125 11.328125,-1.703125 8.4375,0 13.03125,3.3125 4.59375,3.328125 4.59375,9.484375 0,5.359375 -3.296875,8.390625 Q 41.015625,30.8125 33.5,32.328125 L 27.484375,33.5 q -11.03125,2.1875 -15.96875,6.875 -4.921875,4.6875 -4.921875,13.046875 0,9.671875 6.8125,15.234375 6.8125,5.5625 18.765625,5.5625 5.140625,0 10.453125,-0.9375 5.328125,-0.921875 10.890625,-2.765625"
         id="DejaVuSans-53"
         inkscape:connector-curvature="0"
         style="stroke-linecap:butt;stroke-linejoin:round" />
    </defs>
  </defs>
  <g
     id="line2d_1"
     style="stroke-linecap:butt;stroke-linejoin:round">
    <defs
       id="defs19">
      <path
         d="M 0,0 0,3.5"
         id="m90ac7b00e7"
         style="stroke:#000000;stroke-width:0.80000001;stroke-linecap:butt;stroke-linejoin:round"
         inkscape:connector-curvature="0" />
    </defs>
    <g
       id="g22"
       style="stroke-linecap:butt;stroke-linejoin:round">
      <use
         style="stroke:#000000;stroke-width:0.80000001;stroke-linecap:butt;stroke-linejoin:round"
         x="73.832726"
         xlink:href="#m90ac7b00e7"
         y="307.58401"
         id="use24"
         width="100%"
         height="100%" />
    </g>
  </g>
  <g
     id="line2d_2"
     style="stroke-linecap:butt;stroke-linejoin:round">
    <g
       id="g44"
       style="stroke-linecap:butt;stroke-linejoin:round">
      <use
         style="stroke:#000000;stroke-width:0.80000001;stroke-linecap:butt;stroke-linejoin:round"
         x="153.01677"
         xlink:href="#m90ac7b00e7"
         y="307.58401"
         id="use46"
         width="100%"
         height="100%" />
    </g>
  </g>
  <g
     id="line2d_3"
     style="stroke-linecap:butt;stroke-linejoin:round">
    <g
       id="g64"
       style="stroke-linecap:butt;stroke-linejoin:round">
      <use
         style="stroke:#000000;stroke-width:0.80000001;stroke-linecap:butt;stroke-linejoin:round"
         x="232.20079"
         xlink:href="#m90ac7b00e7"
         y="307.58401"
         id="use66"
         width="100%"
         height="100%" />
    </g>
  </g>
  <g
     id="line2d_4"
     style="stroke-linecap:butt;stroke-linejoin:round">
    <g
       id="g84"
       style="stroke-linecap:butt;stroke-linejoin:round">
      <use
         style="stroke:#000000;stroke-width:0.80000001;stroke-linecap:butt;stroke-linejoin:round"
         x="311.38483"
         xlink:href="#m90ac7b00e7"
         y="307.58401"
         id="use86"
         width="100%"
         height="100%" />
    </g>
  </g>
  <g
     id="line2d_5"
     style="stroke-linecap:butt;stroke-linejoin:round">
    <g
       id="g101"
       style="stroke-linecap:butt;stroke-linejoin:round">
      <use
         style="stroke:#000000;stroke-width:0.80000001;stroke-linecap:butt;stroke-linejoin:round"
         x="390.56888"
         xlink:href="#m90ac7b00e7"
         y="307.58401"
         id="use103"
         width="100%"
         height="100%" />
    </g>
  </g>
  <g
     id="line2d_6"
     style="stroke-linecap:butt;stroke-linejoin:round">
    <defs
       id="defs139">
      <path
         d="M 0,0 -3.5,0"
         id="m83d0742ab7"
         style="stroke:#000000;stroke-width:0.80000001;stroke-linecap:butt;stroke-linejoin:round"
         inkscape:connector-curvature="0" />
    </defs>
    <g
       id="g142"
       style="stroke-linecap:butt;stroke-linejoin:round">
      <use
         style="stroke:#000000;stroke-width:0.80000001;stroke-linecap:butt;stroke-linejoin:round"
         x="57.599998"
         xlink:href="#m83d0742ab7"
         y="307.58401"
         id="use144"
         width="100%"
         height="100%" />
    </g>
  </g>
  <g
     id="line2d_7"
     style="stroke-linecap:butt;stroke-linejoin:round">
    <g
       id="g160"
       style="stroke-linecap:butt;stroke-linejoin:round">
      <use
         style="stroke:#000000;stroke-width:0.80000001;stroke-linecap:butt;stroke-linejoin:round"
         x="57.599998"
         xlink:href="#m83d0742ab7"
         y="270.72046"
         id="use162"
         width="100%"
         height="100%" />
    </g>
  </g>
  <g
     id="line2d_8"
     style="stroke-linecap:butt;stroke-linejoin:round">
    <g
       id="g175"
       style="stroke-linecap:butt;stroke-linejoin:round">
      <use
         style="stroke:#000000;stroke-width:0.80000001;stroke-linecap:butt;stroke-linejoin:round"
         x="57.599998"
         xlink:href="#m83d0742ab7"
         y="233.85689"
         id="use177"
         width="100%"
         height="100%" />
    </g>
  </g>
  <g
     id="line2d_9"
     style="stroke-linecap:butt;stroke-linejoin:round">
    <g
       id="g190"
       style="stroke-linecap:butt;stroke-linejoin:round">
      <use
         style="stroke:#000000;stroke-width:0.80000001;stroke-linecap:butt;stroke-linejoin:round"
         x="57.599998"
         xlink:href="#m83d0742ab7"
         y="196.99333"
         id="use192"
         width="100%"
         height="100%" />
    </g>
  </g>
  <g
     id="line2d_10"
     style="stroke-linecap:butt;stroke-linejoin:round">
    <g
       id="g205"
       style="stroke-linecap:butt;stroke-linejoin:round">
      <use
         style="stroke:#000000;stroke-width:0.80000001;stroke-linecap:butt;stroke-linejoin:round"
         x="57.599998"
         xlink:href="#m83d0742ab7"
         y="160.12978"
         id="use207"
         width="100%"
         height="100%" />
    </g>
  </g>
  <g
     id="line2d_11"
     style="stroke-linecap:butt;stroke-linejoin:round">
    <g
       id="g220"
       style="stroke-linecap:butt;stroke-linejoin:round">
      <use
         style="stroke:#000000;stroke-width:0.80000001;stroke-linecap:butt;stroke-linejoin:round"
         x="57.599998"
         xlink:href="#m83d0742ab7"
         y="123.26622"
         id="use222"
         width="100%"
         height="100%" />
    </g>
  </g>
  <g
     id="line2d_12"
     style="stroke-linecap:butt;stroke-linejoin:round">
    <g
       id="g235"
       style="stroke-linecap:butt;stroke-linejoin:round">
      <use
         style="stroke:#000000;stroke-width:0.80000001;stroke-linecap:butt;stroke-linejoin:round"
         x="57.599998"
         xlink:href="#m83d0742ab7"
         y="86.402664"
         id="use237"
         width="100%"
         height="100%" />
    </g>
  </g>
  <g
     id="line2d_13"
     style="stroke-linecap:butt;stroke-linejoin:round">
    <g
       id="g253"
       style="stroke-linecap:butt;stroke-linejoin:round">
      <use
         style="stroke:#000000;stroke-width:0.80000001;stroke-linecap:butt;stroke-linejoin:round"
         x="57.599998"
         xlink:href="#m83d0742ab7"
         y="49.539108"
         id="use255"
         width="100%"
         height="100%" />
    </g>
  </g>
  <path
     inkscape:connector-curvature="0"
     id="path348"
     style="fill:none;stroke:#1f77b4;stroke-width:1.5;stroke-linecap:square;stroke-linejoin:round"
     d="m 73.832727,307.584 142.531263,0 1.58368,-0.11708 9.50209,0 1.58368,0.11708 28.50625,0 1.58368,-0.60675 4.75104,-0.1611 4.75104,-0.0946 1.58368,0.60675 1.58369,-2.43208 1.58368,0.0745 1.58368,-0.16921 1.58368,-2.75811 1.58368,-0.60249 1.58368,-7.35926 1.58368,-0.8997 3.16736,-14.23695 1.58368,-5.64283 1.58368,-1.83279 1.58368,-9.67337 1.58368,4.41226 1.58369,-16.68426 1.58368,-1.42452 1.58368,4.59521 1.58368,5.68236 1.58368,-9.50726 1.58368,6.16878 1.58368,-2.82905 1.58368,14.18184 1.58368,1.54724 1.58368,-12.32083 1.58368,-7.3588 1.58368,10.5912 1.58368,-4.67211 3.16736,-2.91578 1.58369,2.42278 1.58368,12.17257 1.58368,2.90475 1.58368,-5.47317 1.58368,-0.3905 1.58368,3.69647 1.58368,0.98413 1.58368,-0.90056 1.58368,-1.12974 1.58368,-6.84022 1.58368,2.41794 1.58368,-3.28899 1.58368,-4.3812 1.58368,-7.28161 1.58369,-6.49534 1.58368,-7.51164 1.58368,5.69619 1.58368,-15.23601 1.58368,-6.0878 1.58368,-10.79876 1.58368,-6.50914 1.58368,6.76716 1.58368,0.12631 1.58368,-4.97138 1.58368,4.55477 1.58368,-13.52022 1.58368,-0.77099 1.58369,4.29506 1.58368,-10.61024 1.58368,-7.95094 1.58368,-3.22548 1.58368,-0.83534 1.58368,11.42603 1.58368,-6.4294 1.58368,-15.5284 1.58368,-10.25011 1.58368,2.9266 1.58368,-8.17457 1.58368,-1.53668 1.58368,-7.16031 1.58368,10.64799 3.16737,29.31532 1.58368,1.40398 1.58368,2.72082 1.58368,4.02471 1.58368,0.0753 3.16736,7.81855 1.58368,4.95237 1.58368,-0.67576 1.58368,5.34243 1.58368,1.38529 0,0"
     clip-path="url(#p2e6892d366)" />
  <path
     inkscape:connector-curvature="0"
     id="path351"
     style="fill:none;stroke:#ff7f0e;stroke-width:1.5;stroke-linecap:square;stroke-linejoin:round"
     d="m 73.832727,307.584 142.531263,0 1.58368,-0.55838 1.58368,-0.30601 6.33472,-0.0973 1.58369,-0.0749 1.58368,0.55839 1.58368,0.306 1.58368,-0.15858 3.16736,0.0973 1.58368,-1.36553 3.16736,0.0749 6.33472,-0.0636 1.58369,1.36553 4.75104,0 1.58368,0.22219 19.00417,0 1.58368,-0.16135 19.00417,-0.0127 1.58368,-0.22552 1.58368,0.0815 1.58368,-0.10841 1.58368,-0.58427 1.58368,-1.01496 1.58368,-0.38069 1.58368,-0.0612 1.58368,-0.32449 1.58368,-0.18794 3.16736,0.18865 1.58368,0.83369 1.58368,0.30124 1.58369,0.006 3.16736,-0.23587 1.58368,-0.47336 1.58368,-0.20156 1.58368,-0.75785 1.58368,-1.11166 1.58368,-2.25757 1.58368,0.0173 3.16736,-1.43964 1.58368,-0.18108 1.58368,-0.0239 1.58368,0.13598 1.58369,0.36874 3.16736,-0.83697 1.58368,-1.66637 1.58368,-2.57736 3.16736,-3.11063 1.58368,-0.98795 1.58368,-3.87418 1.58368,-1.46605 3.16736,-4.52728 1.58368,-3.66573 3.16737,-12.90032 3.16736,-18.4654 1.58368,-12.43495 1.58368,-18.23192 1.58368,-15.67473 3.16736,-33.86393 1.58368,-21.44175 3.16736,-26.30319 1.58368,-4.55882 1.58368,-9.98958 1.58368,-6.051987 1.58369,3.696237 1.58368,4.3301 1.58368,-8.57403 1.58368,-6.897759 1.58368,-3.221153 1.58368,-0.881764 1.58368,-0.03251 1.58368,-15.966863 1.58368,-3.467112 1.58368,-0.465009 1.58368,5.552947 0,0"
     clip-path="url(#p2e6892d366)" />
  <path
     inkscape:connector-curvature="0"
     id="path363"
     style="fill:none;stroke:#000000;stroke-width:0.80000001;stroke-linecap:square;stroke-linejoin:miter"
     d="m 57.6,307.584 0,-266.112" />
  <path
     inkscape:connector-curvature="0"
     id="path369"
     style="fill:none;stroke:#000000;stroke-width:0.80000001;stroke-linecap:square;stroke-linejoin:miter"
     d="m 57.6,307.584 357.12,0" />
  <g
     style="stroke-linecap:butt;stroke-linejoin:round"
     id="line2d_19"
     transform="translate(16,0)">
    <path
       inkscape:connector-curvature="0"
       id="path379"
       style="fill:none;stroke:#1f77b4;stroke-width:1.5;stroke-linecap:square;stroke-linejoin:round"
       d="m 66.6,54.570438 20,0" />
  </g>
  <g
     style="stroke-linecap:butt;stroke-linejoin:round"
     id="line2d_20" />
  <g
     style="stroke-linecap:butt;stroke-linejoin:round"
     id="line2d_21"
     transform="translate(16,0)">
    <path
       inkscape:connector-curvature="0"
       id="path409"
       style="fill:none;stroke:#ff7f0e;stroke-width:1.5;stroke-linecap:square;stroke-linejoin:round"
       d="m 66.6,69.248563 20,0" />
  </g>
  <g
     style="stroke-linecap:butt;stroke-linejoin:round"
     id="line2d_22" />
  <g
     style="stroke-linecap:butt;stroke-linejoin:round"
     id="line2d_24" />
  <g
     style="stroke-linecap:butt;stroke-linejoin:round"
     id="line2d_26" />
  <g
     style="stroke-linecap:butt;stroke-linejoin:round"
     id="line2d_28" />
  <defs
     id="defs676">
    <clipPath
       id="p2e6892d366">
      <rect
         height="266.112"
         width="357.12"
         x="57.6"
         y="41.472"
         id="rect679" />
    </clipPath>
  </defs>
  <text
     xml:space="preserve"
     style="font-style:normal;font-weight:normal;font-size:10px;line-height:125%;font-family:sans-serif;letter-spacing:0px;word-spacing:0px;fill:#000000;fill-opacity:1;stroke:none;stroke-width:1px;stroke-linecap:butt;stroke-linejoin:miter;stroke-opacity:1"
     x="110.96484"
     y="56.653694"
     id="text6004"
     sodipodi:linespacing="125%"><tspan
       sodipodi:role="line"
       id="tspan6006"
       style="font-style:normal;font-variant:normal;font-weight:normal;font-stretch:normal;font-family:Helvetica;-inkscape-font-specification:Helvetica;stroke-linecap:butt;stroke-linejoin:round"
       x="110.96484"
       y="56.653694">Stereopsis</tspan></text>
  <text
     sodipodi:linespacing="125%"
     id="text6008"
     y="72.653694"
     x="110.96484"
     style="font-style:normal;font-weight:normal;font-size:10px;line-height:125%;font-family:sans-serif;letter-spacing:0px;word-spacing:0px;fill:#000000;fill-opacity:1;stroke:none;stroke-width:1px;stroke-linecap:butt;stroke-linejoin:miter;stroke-opacity:1"
     xml:space="preserve"><tspan
       y="72.653694"
       x="110.96484"
       style="font-style:normal;font-variant:normal;font-weight:normal;font-stretch:normal;font-family:Helvetica;-inkscape-font-specification:Helvetica;stroke-linecap:butt;stroke-linejoin:round"
       id="tspan6010"
       sodipodi:role="line">Object recognition</tspan></text>
  <text
     xml:space="preserve"
     style="font-style:normal;font-weight:normal;font-size:10px;line-height:125%;font-family:sans-serif;letter-spacing:0px;word-spacing:0px;fill:#000000;fill-opacity:1;stroke:none;stroke-width:1px;stroke-linecap:butt;stroke-linejoin:miter;stroke-opacity:1"
     x="209.59116"
     y="232.27422"
     id="text6012"
     sodipodi:linespacing="125%"><tspan
       sodipodi:role="line"
       id="tspan6014"
       style="font-style:normal;font-variant:normal;font-weight:normal;font-stretch:normal;font-family:Helvetica;-inkscape-font-specification:Helvetica;stroke-linecap:butt;stroke-linejoin:round"
       x="209.59116"
       y="232.27422">Julesz invents RDS</tspan></text>
  <text
     sodipodi:linespacing="125%"
     id="text6016"
     y="114.25959"
     x="237.41356"
     style="font-style:normal;font-weight:normal;font-size:10px;line-height:125%;font-family:sans-serif;letter-spacing:0px;word-spacing:0px;fill:#000000;fill-opacity:1;stroke:none;stroke-width:1px;stroke-linecap:butt;stroke-linejoin:miter;stroke-opacity:1"
     xml:space="preserve"><tspan
       y="114.25959"
       x="237.41356"
       style="font-style:normal;font-variant:normal;font-weight:normal;font-stretch:normal;font-family:Helvetica;-inkscape-font-specification:Helvetica;stroke-linecap:butt;stroke-linejoin:round"
       id="tspan6018"
       sodipodi:role="line">Ohzawa et al. propose </tspan><tspan
       y="126.75959"
       x="237.41356"
       style="font-style:normal;font-variant:normal;font-weight:normal;font-stretch:normal;font-family:Helvetica;-inkscape-font-specification:Helvetica;stroke-linecap:butt;stroke-linejoin:round"
       sodipodi:role="line"
       id="tspan6020">binocular energy model</tspan></text>
  <text
     xml:space="preserve"
     style="font-style:normal;font-weight:normal;font-size:10px;line-height:125%;font-family:sans-serif;letter-spacing:0px;word-spacing:0px;fill:#000000;fill-opacity:1;stroke:none;stroke-width:1px;stroke-linecap:butt;stroke-linejoin:miter;stroke-opacity:1"
     x="153.40434"
     y="266.28101"
     id="text6022"
     sodipodi:linespacing="125%"><tspan
       id="tspan6026"
       sodipodi:role="line"
       style="font-style:normal;font-variant:normal;font-weight:normal;font-stretch:normal;font-family:Helvetica;-inkscape-font-specification:Helvetica;stroke-linecap:butt;stroke-linejoin:round"
       x="153.40434"
       y="266.28101">Minsky's summer student</tspan><tspan
       sodipodi:role="line"
       style="font-style:normal;font-variant:normal;font-weight:normal;font-stretch:normal;font-family:Helvetica;-inkscape-font-specification:Helvetica;stroke-linecap:butt;stroke-linejoin:round"
       x="153.40434"
       y="278.78101"
       id="tspan6030">works on object recognition</tspan></text>
  <text
     sodipodi:linespacing="125%"
     id="text6070"
     y="343.05368"
     x="223.41138"
     style="font-style:normal;font-weight:normal;font-size:12px;line-height:125%;font-family:sans-serif;letter-spacing:0px;word-spacing:0px;fill:#000000;fill-opacity:1;stroke:none;stroke-width:1px;stroke-linecap:butt;stroke-linejoin:miter;stroke-opacity:1"
     xml:space="preserve"><tspan
       y="343.05368"
       x="223.41138"
       style="font-style:normal;font-variant:normal;font-weight:normal;font-stretch:normal;font-size:12px;font-family:Helvetica;-inkscape-font-specification:Helvetica;stroke-linecap:butt;stroke-linejoin:round"
       id="tspan6072"
       sodipodi:role="line">Year</tspan></text>
  <text
     xml:space="preserve"
     style="font-style:normal;font-weight:normal;font-size:12px;line-height:125%;font-family:sans-serif;letter-spacing:0px;word-spacing:0px;fill:#000000;fill-opacity:1;stroke:none;stroke-width:1px;stroke-linecap:butt;stroke-linejoin:miter;stroke-opacity:1"
     x="-243.35486"
     y="21.552343"
     id="text6074"
     sodipodi:linespacing="125%"
     transform="matrix(0,-1,1,0,0,0)"><tspan
       sodipodi:role="line"
       id="tspan6076"
       style="font-style:normal;font-variant:normal;font-weight:normal;font-stretch:normal;font-size:12px;font-family:Helvetica;-inkscape-font-specification:Helvetica;stroke-linecap:butt;stroke-linejoin:round"
       x="-243.35486"
       y="21.552343">Proportion of occurrences</tspan></text>
  <text
     sodipodi:linespacing="125%"
     id="text6078"
     y="312.65369"
     x="-129.03516"
     style="font-style:normal;font-weight:normal;font-size:12px;line-height:125%;font-family:sans-serif;letter-spacing:0px;word-spacing:0px;fill:#000000;fill-opacity:1;stroke:none;stroke-width:1px;stroke-linecap:butt;stroke-linejoin:miter;stroke-opacity:1"
     xml:space="preserve"><tspan
       y="312.65369"
       x="-129.03516"
       style="font-style:normal;font-variant:normal;font-weight:normal;font-stretch:normal;font-size:12px;font-family:Helvetica;-inkscape-font-specification:Helvetica;stroke-linecap:butt;stroke-linejoin:round"
       id="tspan6080"
       sodipodi:role="line" /></text>
  <text
     xml:space="preserve"
     style="font-style:normal;font-weight:normal;font-size:12px;line-height:125%;font-family:sans-serif;letter-spacing:0px;word-spacing:0px;fill:#000000;fill-opacity:1;stroke:none;stroke-width:1px;stroke-linecap:butt;stroke-linejoin:miter;stroke-opacity:1"
     x="60.37384"
     y="323.85367"
     id="text6108"
     sodipodi:linespacing="125%"><tspan
       sodipodi:role="line"
       id="tspan6110"
       style="font-style:normal;font-variant:normal;font-weight:normal;font-stretch:normal;font-size:12px;font-family:Helvetica;-inkscape-font-specification:Helvetica;stroke-linecap:butt;stroke-linejoin:round"
       x="60.37384"
       y="323.85367">1800</tspan></text>
  <text
     sodipodi:linespacing="125%"
     id="text6112"
     y="323.85367"
     x="139.55788"
     style="font-style:normal;font-weight:normal;font-size:12px;line-height:125%;font-family:sans-serif;letter-spacing:0px;word-spacing:0px;fill:#000000;fill-opacity:1;stroke:none;stroke-width:1px;stroke-linecap:butt;stroke-linejoin:miter;stroke-opacity:1"
     xml:space="preserve"><tspan
       y="323.85367"
       x="139.55788"
       style="font-style:normal;font-variant:normal;font-weight:normal;font-stretch:normal;font-size:12px;font-family:Helvetica;-inkscape-font-specification:Helvetica;stroke-linecap:butt;stroke-linejoin:round"
       id="tspan6114"
       sodipodi:role="line">1850</tspan></text>
  <text
     xml:space="preserve"
     style="font-style:normal;font-weight:normal;font-size:12px;line-height:125%;font-family:sans-serif;letter-spacing:0px;word-spacing:0px;fill:#000000;fill-opacity:1;stroke:none;stroke-width:1px;stroke-linecap:butt;stroke-linejoin:miter;stroke-opacity:1"
     x="218.74191"
     y="323.85367"
     id="text6116"
     sodipodi:linespacing="125%"><tspan
       sodipodi:role="line"
       id="tspan6118"
       style="font-style:normal;font-variant:normal;font-weight:normal;font-stretch:normal;font-size:12px;font-family:Helvetica;-inkscape-font-specification:Helvetica;stroke-linecap:butt;stroke-linejoin:round"
       x="218.74191"
       y="323.85367">1900</tspan></text>
  <text
     sodipodi:linespacing="125%"
     id="text6120"
     y="323.85367"
     x="297.92593"
     style="font-style:normal;font-weight:normal;font-size:12px;line-height:125%;font-family:sans-serif;letter-spacing:0px;word-spacing:0px;fill:#000000;fill-opacity:1;stroke:none;stroke-width:1px;stroke-linecap:butt;stroke-linejoin:miter;stroke-opacity:1"
     xml:space="preserve"><tspan
       y="323.85367"
       x="297.92593"
       style="font-style:normal;font-variant:normal;font-weight:normal;font-stretch:normal;font-size:12px;font-family:Helvetica;-inkscape-font-specification:Helvetica;stroke-linecap:butt;stroke-linejoin:round"
       id="tspan6122"
       sodipodi:role="line">1950</tspan></text>
  <text
     xml:space="preserve"
     style="font-style:normal;font-weight:normal;font-size:12px;line-height:125%;font-family:sans-serif;letter-spacing:0px;word-spacing:0px;fill:#000000;fill-opacity:1;stroke:none;stroke-width:1px;stroke-linecap:butt;stroke-linejoin:miter;stroke-opacity:1"
     x="377.3139"
     y="323.85367"
     id="text6124"
     sodipodi:linespacing="125%"><tspan
       sodipodi:role="line"
       id="tspan6126"
       style="font-style:normal;font-variant:normal;font-weight:normal;font-stretch:normal;font-size:12px;font-family:Helvetica;-inkscape-font-specification:Helvetica;stroke-linecap:butt;stroke-linejoin:round"
       x="377.3139"
       y="323.85367">2000</tspan></text>
  <text
     sodipodi:linespacing="125%"
     id="text6267"
     y="311.82443"
     x="42.773842"
     style="font-style:normal;font-weight:normal;font-size:12px;line-height:125%;font-family:sans-serif;letter-spacing:0px;word-spacing:0px;fill:#000000;fill-opacity:1;stroke:none;stroke-width:1px;stroke-linecap:butt;stroke-linejoin:miter;stroke-opacity:1"
     xml:space="preserve"><tspan
       y="311.82443"
       x="42.773842"
       style="font-style:normal;font-variant:normal;font-weight:normal;font-stretch:normal;font-size:12px;font-family:Helvetica;-inkscape-font-specification:Helvetica;stroke-linecap:butt;stroke-linejoin:round"
       id="tspan6269"
       sodipodi:role="line">0</tspan></text>
  <text
     xml:space="preserve"
     style="font-style:normal;font-weight:normal;font-size:12px;line-height:125%;font-family:sans-serif;letter-spacing:0px;word-spacing:0px;fill:#000000;fill-opacity:1;stroke:none;stroke-width:1px;stroke-linecap:butt;stroke-linejoin:miter;stroke-opacity:1"
     x="32.766029"
     y="238.09732"
     id="text6271"
     sodipodi:linespacing="125%"><tspan
       sodipodi:role="line"
       id="tspan6273"
       style="font-style:normal;font-variant:normal;font-weight:normal;font-stretch:normal;font-size:12px;font-family:Helvetica;-inkscape-font-specification:Helvetica;stroke-linecap:butt;stroke-linejoin:round"
       x="32.766029"
       y="238.09732">1.0</tspan></text>
  <text
     sodipodi:linespacing="125%"
     id="text6275"
     y="164.38484"
     x="32.766029"
     style="font-style:normal;font-weight:normal;font-size:12px;line-height:125%;font-family:sans-serif;letter-spacing:0px;word-spacing:0px;fill:#000000;fill-opacity:1;stroke:none;stroke-width:1px;stroke-linecap:butt;stroke-linejoin:miter;stroke-opacity:1"
     xml:space="preserve"><tspan
       y="164.38484"
       x="32.766029"
       style="font-style:normal;font-variant:normal;font-weight:normal;font-stretch:normal;font-size:12px;font-family:Helvetica;-inkscape-font-specification:Helvetica;stroke-linecap:butt;stroke-linejoin:round"
       id="tspan6277"
       sodipodi:role="line">2.0</tspan></text>
  <text
     xml:space="preserve"
     style="font-style:normal;font-weight:normal;font-size:12px;line-height:125%;font-family:sans-serif;letter-spacing:0px;word-spacing:0px;fill:#000000;fill-opacity:1;stroke:none;stroke-width:1px;stroke-linecap:butt;stroke-linejoin:miter;stroke-opacity:1"
     x="32.766029"
     y="90.648949"
     id="text6279"
     sodipodi:linespacing="125%"><tspan
       sodipodi:role="line"
       id="tspan6281"
       style="font-style:normal;font-variant:normal;font-weight:normal;font-stretch:normal;font-size:12px;font-family:Helvetica;-inkscape-font-specification:Helvetica;stroke-linecap:butt;stroke-linejoin:round"
       x="32.766029"
       y="90.648949">3.0</tspan></text>
  <text
     sodipodi:linespacing="125%"
     id="text6287"
     y="31.053671"
     x="44.37384"
     style="font-style:normal;font-weight:normal;font-size:12px;line-height:125%;font-family:sans-serif;letter-spacing:0px;word-spacing:0px;fill:#000000;fill-opacity:1;stroke:none;stroke-width:1px;stroke-linecap:butt;stroke-linejoin:miter;stroke-opacity:1"
     xml:space="preserve"><tspan
       y="31.053671"
       x="44.37384"
       style="font-style:normal;font-variant:normal;font-weight:normal;font-stretch:normal;font-size:12px;font-family:Helvetica;-inkscape-font-specification:Helvetica;stroke-linecap:butt;stroke-linejoin:round"
       id="tspan6289"
       sodipodi:role="line">x10<tspan
   style="font-size:51.99999809%;baseline-shift:super;stroke-linecap:butt;stroke-linejoin:round"
   id="tspan6291">-7</tspan></tspan></text>
  <text
     sodipodi:linespacing="125%"
     id="text6371"
     y="201.0656"
     x="32.766029"
     style="font-style:normal;font-weight:normal;font-size:12px;line-height:125%;font-family:sans-serif;letter-spacing:0px;word-spacing:0px;fill:#000000;fill-opacity:1;stroke:none;stroke-width:1px;stroke-linecap:butt;stroke-linejoin:miter;stroke-opacity:1"
     xml:space="preserve"><tspan
       y="201.0656"
       x="32.766029"
       style="font-style:normal;font-variant:normal;font-weight:normal;font-stretch:normal;font-size:12px;font-family:Helvetica;-inkscape-font-specification:Helvetica;stroke-linecap:butt;stroke-linejoin:round"
       id="tspan6373"
       sodipodi:role="line">1.5</tspan></text>
  <text
     xml:space="preserve"
     style="font-style:normal;font-weight:normal;font-size:12px;line-height:125%;font-family:sans-serif;letter-spacing:0px;word-spacing:0px;fill:#000000;fill-opacity:1;stroke:none;stroke-width:1px;stroke-linecap:butt;stroke-linejoin:miter;stroke-opacity:1"
     x="32.766029"
     y="127.37071"
     id="text6375"
     sodipodi:linespacing="125%"><tspan
       sodipodi:role="line"
       id="tspan6377"
       style="font-style:normal;font-variant:normal;font-weight:normal;font-stretch:normal;font-size:12px;font-family:Helvetica;-inkscape-font-specification:Helvetica;stroke-linecap:butt;stroke-linejoin:round"
       x="32.766029"
       y="127.37071">2.5</tspan></text>
  <text
     sodipodi:linespacing="125%"
     id="text6379"
     y="53.626022"
     x="32.766029"
     style="font-style:normal;font-weight:normal;font-size:12px;line-height:125%;font-family:sans-serif;letter-spacing:0px;word-spacing:0px;fill:#000000;fill-opacity:1;stroke:none;stroke-width:1px;stroke-linecap:butt;stroke-linejoin:miter;stroke-opacity:1"
     xml:space="preserve"><tspan
       y="53.626022"
       x="32.766029"
       style="font-style:normal;font-variant:normal;font-weight:normal;font-stretch:normal;font-size:12px;font-family:Helvetica;-inkscape-font-specification:Helvetica;stroke-linecap:butt;stroke-linejoin:round"
       id="tspan6381"
       sodipodi:role="line">3.5</tspan></text>
  <text
     sodipodi:linespacing="125%"
     id="text6383"
     y="274.80151"
     x="32.766029"
     style="font-style:normal;font-weight:normal;font-size:12px;line-height:125%;font-family:sans-serif;letter-spacing:0px;word-spacing:0px;fill:#000000;fill-opacity:1;stroke:none;stroke-width:1px;stroke-linecap:butt;stroke-linejoin:miter;stroke-opacity:1"
     xml:space="preserve"><tspan
       y="274.80151"
       x="32.766029"
       style="font-style:normal;font-variant:normal;font-weight:normal;font-stretch:normal;font-size:12px;font-family:Helvetica;-inkscape-font-specification:Helvetica;stroke-linecap:butt;stroke-linejoin:round"
       id="tspan6385"
       sodipodi:role="line">0.5</tspan></text>
  <path
     style="opacity:1;fill:#999999;fill-opacity:1;stroke:none;stroke-width:0.40000001;stroke-linecap:butt;stroke-linejoin:round;stroke-miterlimit:10;stroke-dasharray:none;stroke-dashoffset:0;stroke-opacity:1"
     id="path6399"
     d="m 300.92709,228.32181 c 2.81044,-0.24836 5.44596,1.31548 7.86597,2.54429 3.4672,1.98168 6.51655,4.49357 9.24806,7.38688 1.59618,1.77757 3.17712,3.63613 4.32127,5.74373 0.64679,1.21664 1.45993,2.33811 2.05488,3.58071 0.33812,0.64858 0.40558,1.38473 0.84047,1.98155 0.25569,0.4797 0.33563,1.00686 0.36799,1.54142 0.006,0.38238 0.0157,0.7642 0.0419,1.1458 0.0383,0.4417 0.0845,0.88266 0.12977,1.3237 0.0267,0.2639 0.0126,0.11363 0.0441,0.45059 0,0 -2.01387,1.27581 -2.01387,1.27581 l 0,0 c -0.0322,-0.33568 -0.0178,-0.18579 -0.044,-0.44959 -0.0434,-0.44269 -0.0918,-0.8849 -0.13217,-1.32789 -0.0338,-0.38274 -0.0515,-0.76677 -0.045,-1.15083 -0.0239,-0.49194 -0.0679,-0.97921 -0.29246,-1.42769 -0.44352,-0.61471 -0.54456,-1.34167 -0.86272,-2.01953 -0.58421,-1.24294 -1.40689,-2.35581 -2.04561,-3.57194 -1.1263,-2.09354 -2.70227,-3.93208 -4.27995,-5.69702 -2.71277,-2.87412 -5.74659,-5.36612 -9.19751,-7.32232 -2.4051,-1.21237 -4.99985,-2.7312 -7.79061,-2.43336 0,0 1.78942,-1.5743 1.78942,-1.5743 z"
     inkscape:connector-curvature="0" />
  <path
     style="opacity:1;fill:#999999;fill-opacity:1;stroke:none;stroke-width:0.40000001;stroke-linecap:butt;stroke-linejoin:round;stroke-miterlimit:10;stroke-dasharray:none;stroke-dashoffset:0;stroke-opacity:1"
     id="path6401"
     d="m 319.9946,247.94583 c 2.00917,1.97489 3.97,3.99531 5.85829,6.08633 1.25136,1.38571 0.54541,1.01822 1.72879,1.431 -0.57176,0.15443 -1.17059,0.69586 -1.71528,0.4633 -0.35271,-0.15059 0.1132,-0.76078 0.12043,-1.14423 0.0403,-2.13633 -0.38371,-4.2803 -0.56673,-6.40336 0.0583,-0.94137 -0.24065,-2.07401 0.1686,-2.9794 0.01,-0.0209 0.0193,-0.0418 0.029,-0.0626 0,0 2.19085,-0.94465 2.19085,-0.94465 l 0,0 c -0.0142,0.011 -0.0282,0.0219 -0.0424,0.0329 -0.53051,0.78398 -0.14893,1.99671 -0.23889,2.85792 0.13153,1.61745 0.37244,3.22088 0.49952,4.83863 0.002,0.0222 0.20159,2.59311 0.01,2.82765 -0.64364,0.78645 -1.62173,1.22517 -2.4326,1.83776 -1.22234,-0.55901 -0.50291,-0.11252 -1.77617,-1.52608 -1.88389,-2.09147 -3.84533,-4.10795 -5.86139,-6.07208 0,0 2.02841,-1.24301 2.02841,-1.24301 z"
     inkscape:connector-curvature="0" />
  <path
     inkscape:connector-curvature="0"
     d="m 285.28646,274.5386 c 2.8345,-0.53432 15.45904,1.7339 18.16216,1.97799 3.95479,0.55511 12.78027,1.65208 16.38976,3.3266 2.14142,1.05916 8.09536,3.67566 9.93932,5.20893 1.05174,0.89015 2.2227,1.63027 3.23591,2.56376 0.55446,0.47702 0.89003,1.13571 1.51519,1.52878 0.4153,0.35072 0.68498,0.81068 0.9132,1.29515 0.14688,0.3531 0.29789,0.70393 0.46371,1.04861 0.1993,0.39604 0.40573,0.78844 0.61125,1.18127 0.12261,0.23521 0.0539,0.10086 0.20803,0.40213 l -1.3974,1.93149 0,0 c -0.15434,-0.29983 -0.0854,-0.16596 -0.20757,-0.40123 -0.20442,-0.39506 -0.41328,-0.78783 -0.61503,-1.18427 -0.17326,-0.34295 -0.33208,-0.69304 -0.46844,-1.05214 -0.20457,-0.44803 -0.42611,-0.88425 -0.8009,-1.21753 -0.63981,-0.40649 -1.00315,-1.0442 -1.54994,-1.5558 -1.00337,-0.9378 -2.17999,-1.66638 -3.22404,-2.55907 -1.82217,-1.52681 -7.34223,-3.91564 -9.46179,-4.96994 -3.58498,-1.66364 -12.17772,-2.95881 -16.10794,-3.49629 -2.68318,-0.23436 -20.10028,-3.48812 -22.58176,-2.1769 l 0.65226,-1.53512 z"
     id="path6445"
     style="opacity:1;fill:#999999;fill-opacity:1;stroke:#ffffff;stroke-width:0.40000001;stroke-linecap:butt;stroke-linejoin:round;stroke-miterlimit:10;stroke-dasharray:none;stroke-dashoffset:0;stroke-opacity:1"
     sodipodi:nodetypes="ccccccccccccccccccccccc" />
  <path
     inkscape:connector-curvature="0"
     d="m 347.24697,116.32181 c 2.81044,-0.24836 5.44596,1.31548 7.86597,2.54429 3.4672,1.98168 6.51655,4.49357 9.24806,7.38688 1.59618,1.77757 3.17712,3.63613 4.32127,5.74373 0.64679,1.21664 1.45993,2.33811 2.05488,3.58071 0.33812,0.64858 0.40558,1.38473 0.84047,1.98155 0.25569,0.4797 0.33563,1.00686 0.36799,1.54142 0.006,0.38238 0.0157,0.7642 0.0419,1.1458 0.0383,0.4417 0.0845,0.88266 0.12977,1.3237 0.0267,0.2639 0.0126,0.11363 0.0441,0.45059 0,0 -2.01387,1.27581 -2.01387,1.27581 l 0,0 c -0.0322,-0.33568 -0.0178,-0.18579 -0.044,-0.44959 -0.0434,-0.44269 -0.0918,-0.8849 -0.13217,-1.32789 -0.0338,-0.38274 -0.0515,-0.76677 -0.045,-1.15083 -0.0239,-0.49194 -0.0679,-0.97921 -0.29246,-1.42769 -0.44352,-0.61471 -0.54456,-1.34167 -0.86272,-2.01953 -0.58421,-1.24294 -1.40689,-2.35581 -2.04561,-3.57194 -1.1263,-2.09354 -2.70227,-3.93208 -4.27995,-5.69702 -2.71277,-2.87412 -5.74659,-5.36612 -9.19751,-7.32232 -2.4051,-1.21237 -4.99985,-2.7312 -7.79061,-2.43336 0,0 1.78942,-1.5743 1.78942,-1.5743 z"
     id="path6447"
     style="opacity:1;fill:#999999;fill-opacity:1;stroke:none;stroke-width:0.40000001;stroke-linecap:butt;stroke-linejoin:round;stroke-miterlimit:10;stroke-dasharray:none;stroke-dashoffset:0;stroke-opacity:1" />
  <path
     inkscape:connector-curvature="0"
     d="m 366.3946,135.94583 c 2.00917,1.97489 3.97,3.99531 5.85829,6.08633 1.25136,1.38571 0.54541,1.01822 1.72879,1.431 -0.57176,0.15443 -1.17059,0.69586 -1.71528,0.4633 -0.35271,-0.15059 0.1132,-0.76078 0.12043,-1.14423 0.0403,-2.13633 -0.38371,-4.2803 -0.56673,-6.40336 0.0583,-0.94137 -0.24065,-2.07401 0.1686,-2.9794 0.01,-0.0209 0.0193,-0.0418 0.029,-0.0626 0,0 2.19085,-0.94465 2.19085,-0.94465 l 0,0 c -0.0142,0.011 -0.0282,0.0219 -0.0424,0.0329 -0.53051,0.78398 -0.14893,1.99671 -0.23889,2.85792 0.13153,1.61745 0.37244,3.22088 0.49952,4.83863 0.002,0.0222 0.20159,2.59311 0.01,2.82765 -0.64364,0.78645 -1.62173,1.22517 -2.4326,1.83776 -1.22234,-0.55901 -0.50291,-0.11252 -1.77617,-1.52608 -1.88389,-2.09147 -3.84533,-4.10795 -5.86139,-6.07208 0,0 2.02841,-1.24301 2.02841,-1.24301 z"
     id="path6449"
     style="opacity:1;fill:#999999;fill-opacity:1;stroke:none;stroke-width:0.40000001;stroke-linecap:butt;stroke-linejoin:round;stroke-miterlimit:10;stroke-dasharray:none;stroke-dashoffset:0;stroke-opacity:1" />
  <path
     inkscape:connector-curvature="0"
     d="m 329.03405,288.93263 c 2.44004,1.40825 4.84469,2.87269 7.19682,4.42366 1.55874,1.02782 0.78322,0.84901 2.03228,0.952 -0.5148,0.29281 -0.9588,0.96705 -1.5444,0.87844 -0.37919,-0.0574 -0.0811,-0.76486 -0.17021,-1.13789 -0.49646,-2.07823 -1.44432,-4.04748 -2.15365,-6.0569 -0.17951,-0.92593 -0.75282,-1.94748 -0.58357,-2.92655 0.004,-0.0227 0.008,-0.0453 0.0124,-0.0679 0,0 1.88413,-1.46363 1.88413,-1.46363 l 0,0 c -0.011,0.0142 -0.0218,0.0283 -0.0328,0.0425 -0.31707,0.89193 0.3563,1.9703 0.48508,2.82657 0.53274,1.53284 1.16786,3.02471 1.69638,4.55896 0.007,0.021 0.84512,2.4598 0.71843,2.73488 -0.42597,0.92267 -1.26287,1.59255 -1.89431,2.38883 -1.32344,-0.23479 -0.51506,0.0171 -2.10198,-1.03217 -2.34798,-1.55251 -4.75224,-3.01298 -7.19625,-4.40909 0,0 1.65209,-1.71175 1.65209,-1.71175 z"
     id="path6435"
     style="opacity:1;fill:#999999;fill-opacity:1;stroke:none;stroke-width:0.40000001;stroke-linecap:butt;stroke-linejoin:round;stroke-miterlimit:10;stroke-dasharray:none;stroke-dashoffset:0;stroke-opacity:1" />
</svg>
